<svg xmlns="http://www.w3.org/2000/svg" viewBox="0 0 1200 630" fill="none">
  <defs>
    <radialGradient id="glow" cx="50%" cy="42%" r="60%">
      <stop offset="0%" stop-color="#ffb800" stop-opacity="0.35"/>
      <stop offset="55%" stop-color="#ff6b00" stop-opacity="0.08"/>
      <stop offset="100%" stop-color="#050505" stop-opacity="0"/>
    </radialGradient>
    <linearGradient id="mark" x1="0" y1="0" x2="1" y2="1">
      <stop offset="0%" stop-color="#ffb800"/>
      <stop offset="100%" stop-color="#ff6b00"/>
    </linearGradient>
    <linearGradient id="wordmark" x1="0" y1="0" x2="1" y2="0">
      <stop offset="0%" stop-color="#ffd770"/>
      <stop offset="55%" stop-color="#ffb800"/>
      <stop offset="100%" stop-color="#ff6b00"/>
    </linearGradient>
    <pattern id="grid" width="42" height="42" patternUnits="userSpaceOnUse">
      <path d="M 42 0 L 0 0 0 42" fill="none" stroke="#ffb800" stroke-opacity="0.05" stroke-width="1"/>
    </pattern>
  </defs>

  <rect width="1200" height="630" fill="#050505"/>
  <rect width="1200" height="630" fill="url(#grid)"/>

  <!-- Ambient particle field, same visual language as the site's own ParticleField component -->
  <g>
    <line x1="1063" y1="515" x2="1151" y2="485" stroke="#ffb800" stroke-opacity="0.10" stroke-width="1"/>
    <line x1="1151" y1="485" x2="1192" y2="563" stroke="#ffb800" stroke-opacity="0.10" stroke-width="1"/>
    <line x1="1151" y1="485" x2="1132" y2="385" stroke="#ffb800" stroke-opacity="0.10" stroke-width="1"/>
    <line x1="674" y1="454" x2="655" y2="478" stroke="#ffb800" stroke-opacity="0.10" stroke-width="1"/>
    <line x1="674" y1="454" x2="676" y2="499" stroke="#ffb800" stroke-opacity="0.10" stroke-width="1"/>
    <line x1="674" y1="454" x2="684" y2="481" stroke="#ffb800" stroke-opacity="0.10" stroke-width="1"/>
    <line x1="674" y1="454" x2="758" y2="362" stroke="#ffb800" stroke-opacity="0.10" stroke-width="1"/>
    <line x1="715" y1="34" x2="805" y2="26" stroke="#ffb800" stroke-opacity="0.10" stroke-width="1"/>
    <line x1="715" y1="34" x2="691" y2="120" stroke="#ffb800" stroke-opacity="0.10" stroke-width="1"/>
    <line x1="844" y1="492" x2="889" y2="597" stroke="#ffb800" stroke-opacity="0.10" stroke-width="1"/>
    <line x1="844" y1="492" x2="786" y2="524" stroke="#ffb800" stroke-opacity="0.10" stroke-width="1"/>
    <line x1="844" y1="492" x2="794" y2="595" stroke="#ffb800" stroke-opacity="0.10" stroke-width="1"/>
    <line x1="852" y1="203" x2="754" y2="195" stroke="#ffb800" stroke-opacity="0.10" stroke-width="1"/>
    <line x1="852" y1="203" x2="914" y2="178" stroke="#ffb800" stroke-opacity="0.10" stroke-width="1"/>
    <line x1="889" y1="597" x2="786" y2="524" stroke="#ffb800" stroke-opacity="0.10" stroke-width="1"/>
    <line x1="889" y1="597" x2="794" y2="595" stroke="#ffb800" stroke-opacity="0.10" stroke-width="1"/>
    <line x1="786" y1="524" x2="794" y2="595" stroke="#ffb800" stroke-opacity="0.10" stroke-width="1"/>
    <line x1="786" y1="524" x2="676" y2="499" stroke="#ffb800" stroke-opacity="0.10" stroke-width="1"/>
    <line x1="786" y1="524" x2="684" y2="481" stroke="#ffb800" stroke-opacity="0.10" stroke-width="1"/>
    <line x1="196" y1="278" x2="227" y2="310" stroke="#ffb800" stroke-opacity="0.10" stroke-width="1"/>
    <line x1="196" y1="278" x2="122" y2="297" stroke="#ffb800" stroke-opacity="0.10" stroke-width="1"/>
    <line x1="375" y1="312" x2="367" y2="411" stroke="#ffb800" stroke-opacity="0.10" stroke-width="1"/>
    <line x1="375" y1="312" x2="386" y2="337" stroke="#ffb800" stroke-opacity="0.10" stroke-width="1"/>
    <line x1="375" y1="312" x2="473" y2="315" stroke="#ffb800" stroke-opacity="0.10" stroke-width="1"/>
    <line x1="655" y1="478" x2="676" y2="499" stroke="#ffb800" stroke-opacity="0.10" stroke-width="1"/>
    <line x1="655" y1="478" x2="684" y2="481" stroke="#ffb800" stroke-opacity="0.10" stroke-width="1"/>
    <line x1="655" y1="478" x2="555" y2="530" stroke="#ffb800" stroke-opacity="0.10" stroke-width="1"/>
    <line x1="520" y1="462" x2="409" y2="481" stroke="#ffb800" stroke-opacity="0.10" stroke-width="1"/>
    <line x1="520" y1="462" x2="502" y2="493" stroke="#ffb800" stroke-opacity="0.10" stroke-width="1"/>
    <line x1="520" y1="462" x2="555" y2="530" stroke="#ffb800" stroke-opacity="0.10" stroke-width="1"/>
    <line x1="570" y1="111" x2="587" y2="97" stroke="#ffb800" stroke-opacity="0.10" stroke-width="1"/>
    <line x1="570" y1="111" x2="555" y2="236" stroke="#ffb800" stroke-opacity="0.10" stroke-width="1"/>
    <line x1="570" y1="111" x2="691" y2="120" stroke="#ffb800" stroke-opacity="0.10" stroke-width="1"/>
    <line x1="1053" y1="117" x2="1176" y2="117" stroke="#ffb800" stroke-opacity="0.10" stroke-width="1"/>
    <line x1="1053" y1="117" x2="1049" y2="237" stroke="#ffb800" stroke-opacity="0.10" stroke-width="1"/>
    <line x1="1053" y1="117" x2="1077" y2="36" stroke="#ffb800" stroke-opacity="0.10" stroke-width="1"/>
    <line x1="409" y1="481" x2="367" y2="411" stroke="#ffb800" stroke-opacity="0.10" stroke-width="1"/>
    <line x1="409" y1="481" x2="502" y2="493" stroke="#ffb800" stroke-opacity="0.10" stroke-width="1"/>
    <line x1="1176" y1="117" x2="1077" y2="36" stroke="#ffb800" stroke-opacity="0.10" stroke-width="1"/>
    <line x1="367" y1="411" x2="386" y2="337" stroke="#ffb800" stroke-opacity="0.10" stroke-width="1"/>
    <line x1="87" y1="40" x2="21" y2="25" stroke="#ffb800" stroke-opacity="0.10" stroke-width="1"/>
    <line x1="502" y1="493" x2="555" y2="530" stroke="#ffb800" stroke-opacity="0.10" stroke-width="1"/>
    <line x1="587" y1="97" x2="691" y2="120" stroke="#ffb800" stroke-opacity="0.10" stroke-width="1"/>
    <line x1="1132" y1="385" x2="1179" y2="292" stroke="#ffb800" stroke-opacity="0.10" stroke-width="1"/>
    <line x1="386" y1="337" x2="473" y2="315" stroke="#ffb800" stroke-opacity="0.10" stroke-width="1"/>
    <line x1="386" y1="337" x2="506" y2="331" stroke="#ffb800" stroke-opacity="0.10" stroke-width="1"/>
    <line x1="676" y1="499" x2="684" y2="481" stroke="#ffb800" stroke-opacity="0.10" stroke-width="1"/>
    <line x1="676" y1="499" x2="555" y2="530" stroke="#ffb800" stroke-opacity="0.10" stroke-width="1"/>
    <line x1="754" y1="195" x2="691" y2="120" stroke="#ffb800" stroke-opacity="0.10" stroke-width="1"/>
    <line x1="227" y1="310" x2="122" y2="297" stroke="#ffb800" stroke-opacity="0.10" stroke-width="1"/>
    <line x1="555" y1="236" x2="473" y2="315" stroke="#ffb800" stroke-opacity="0.10" stroke-width="1"/>
    <line x1="555" y1="236" x2="506" y2="331" stroke="#ffb800" stroke-opacity="0.10" stroke-width="1"/>
    <line x1="77" y1="199" x2="122" y2="297" stroke="#ffb800" stroke-opacity="0.10" stroke-width="1"/>
    <line x1="473" y1="315" x2="506" y2="331" stroke="#ffb800" stroke-opacity="0.10" stroke-width="1"/>

    <circle cx="1063" cy="515" r="0.8" fill="#ffb800" fill-opacity="0.22"/>
    <circle cx="1151" cy="485" r="1.3" fill="#ffb800" fill-opacity="0.34"/>
    <circle cx="674" cy="454" r="0.8" fill="#ffb800" fill-opacity="0.19"/>
    <circle cx="715" cy="34" r="0.7" fill="#ffb800" fill-opacity="0.36"/>
    <circle cx="844" cy="492" r="1.3" fill="#ffb800" fill-opacity="0.29"/>
    <circle cx="852" cy="203" r="1.7" fill="#ffb800" fill-opacity="0.38"/>
    <circle cx="889" cy="597" r="1.4" fill="#ffb800" fill-opacity="0.27"/>
    <circle cx="1192" cy="563" r="1.8" fill="#ffb800" fill-opacity="0.29"/>
    <circle cx="219" cy="85" r="1.0" fill="#ffb800" fill-opacity="0.31"/>
    <circle cx="786" cy="524" r="1.9" fill="#ffb800" fill-opacity="0.29"/>
    <circle cx="196" cy="278" r="1.7" fill="#ffb800" fill-opacity="0.18"/>
    <circle cx="375" cy="312" r="1.7" fill="#ffb800" fill-opacity="0.33"/>
    <circle cx="805" cy="26" r="1.3" fill="#ffb800" fill-opacity="0.25"/>
    <circle cx="655" cy="478" r="1.7" fill="#ffb800" fill-opacity="0.29"/>
    <circle cx="520" cy="462" r="1.7" fill="#ffb800" fill-opacity="0.26"/>
    <circle cx="146" cy="571" r="1.5" fill="#ffb800" fill-opacity="0.24"/>
    <circle cx="570" cy="111" r="0.7" fill="#ffb800" fill-opacity="0.20"/>
    <circle cx="1053" cy="117" r="1.3" fill="#ffb800" fill-opacity="0.19"/>
    <circle cx="409" cy="481" r="1.5" fill="#ffb800" fill-opacity="0.33"/>
    <circle cx="341" cy="19" r="0.7" fill="#ffb800" fill-opacity="0.25"/>
    <circle cx="1176" cy="117" r="1.1" fill="#ffb800" fill-opacity="0.20"/>
    <circle cx="794" cy="595" r="1.8" fill="#ffb800" fill-opacity="0.37"/>
    <circle cx="367" cy="411" r="0.6" fill="#ffb800" fill-opacity="0.26"/>
    <circle cx="87" cy="40" r="1.5" fill="#ffb800" fill-opacity="0.38"/>
    <circle cx="502" cy="493" r="1.5" fill="#ffb800" fill-opacity="0.18"/>
    <circle cx="1049" cy="237" r="1.0" fill="#ffb800" fill-opacity="0.34"/>
    <circle cx="587" cy="97" r="1.6" fill="#ffb800" fill-opacity="0.30"/>
    <circle cx="1132" cy="385" r="1.0" fill="#ffb800" fill-opacity="0.35"/>
    <circle cx="386" cy="337" r="0.9" fill="#ffb800" fill-opacity="0.29"/>
    <circle cx="676" cy="499" r="1.8" fill="#ffb800" fill-opacity="0.30"/>
    <circle cx="684" cy="481" r="0.8" fill="#ffb800" fill-opacity="0.22"/>
    <circle cx="1179" cy="292" r="0.8" fill="#ffb800" fill-opacity="0.22"/>
    <circle cx="754" cy="195" r="1.2" fill="#ffb800" fill-opacity="0.22"/>
    <circle cx="758" cy="362" r="1.3" fill="#ffb800" fill-opacity="0.36"/>
    <circle cx="227" cy="310" r="1.2" fill="#ffb800" fill-opacity="0.20"/>
    <circle cx="21" cy="25" r="1.7" fill="#ffb800" fill-opacity="0.39"/>
    <circle cx="555" cy="236" r="1.7" fill="#ffb800" fill-opacity="0.35"/>
    <circle cx="331" cy="603" r="1.0" fill="#ffb800" fill-opacity="0.32"/>
    <circle cx="77" cy="199" r="1.0" fill="#ffb800" fill-opacity="0.38"/>
    <circle cx="473" cy="315" r="1.0" fill="#ffb800" fill-opacity="0.29"/>
    <circle cx="691" cy="120" r="0.9" fill="#ffb800" fill-opacity="0.16"/>
    <circle cx="122" cy="297" r="0.8" fill="#ffb800" fill-opacity="0.29"/>
    <circle cx="914" cy="178" r="1.1" fill="#ffb800" fill-opacity="0.26"/>
    <circle cx="506" cy="331" r="1.2" fill="#ffb800" fill-opacity="0.30"/>
    <circle cx="555" cy="530" r="1.8" fill="#ffb800" fill-opacity="0.20"/>
    <circle cx="1077" cy="36" r="1.0" fill="#ffb800" fill-opacity="0.33"/>
  </g>

  <rect width="1200" height="630" fill="url(#glow)"/>

  <g transform="translate(600 235)">
    <path d="M0 -70 L58 60 H23 L0 8 L-23 60 H-58 Z" fill="url(#mark)"/>
  </g>

  <text
    x="600"
    y="380"
    text-anchor="middle"
    font-family="Arial, Helvetica, sans-serif"
    font-size="76"
    font-weight="700"
    letter-spacing="1"
    fill="url(#wordmark)"
  >Aurevyn</text>

  <text
    x="600"
    y="432"
    text-anchor="middle"
    font-family="Arial, Helvetica, sans-serif"
    font-size="26"
    letter-spacing="0.5"
    fill="#fafafa"
  >AI Agents &amp; Automation Systems That Outperform</text>
</svg>
